<svg id="Layer_1" data-name="Layer 1" xmlns="http://www.w3.org/2000/svg" viewBox="0 0 1597.59 745.29"><defs><style>.cls-1{fill:#555;}.cls-2{fill:#ffc600;}.cls-3{fill:#0191c0;}</style></defs><title>AlfaKİTAB</title><path class="cls-1" d="M369.72,810.74c0-32.16-.07-64.32.1-96.48,0-3.58-1.18-5.4-4.19-6.92a132.48,132.48,0,0,0-28-10.36c-31.49-7.93-63.56-8.9-95.79-7.92-8,.25-9.24,1.61-9.24,9.5v183c0,8.38,1.13,9.42,9.46,9.58,41.87.79,83,6.48,122.75,20,4.75,1.61,5,.22,5-3.89C369.66,875.07,369.72,842.9,369.72,810.74ZM520.43,697.51c0-6.47-1.66-8.19-8.27-8.41-6.33-.2-12.68,0-19-.44-4.2-.29-5.2,1.09-5.18,5.22.18,33,.1,66,.1,99v5.77c-7.33-6.92-13.93-13-20.29-19.23-2.1-2.08-3.3-2.32-5.53-.1-6.34,6.32-13,12.36-20.38,19.34,0-26.5,0-51.79,0-77.09,0-8.83-.08-17.67,0-26.5,0-2.42-.6-3.25-3.12-2.83-17.62,2.92-35,6.74-51.08,14.89-3.41,1.72-4.58,3.8-4.57,7.71q.24,88.72.11,177.47c0,5.5.11,11,0,16.49-.09,2.9.48,4,3.62,2.77,3.54-1.42,7.23-2.48,10.9-3.59C435,896.71,473.2,891.71,512,891.1c6.55-.1,8.41-1.69,8.41-7.62Q520.46,790.49,520.43,697.51ZM548,721.1c-.36-4.77-3.19-6.21-10.51-6.29-5.36-.06-3.18,3.78-3.18,5.94q-.16,86.49-.09,173c0,7.84-1.33,9.15-9.35,9.2-21.7.14-43.2,2.41-64.65,5.61-27.47,4.09-53.72,12.71-80,21.1a13.16,13.16,0,0,1-9.11-.18,420.11,420.11,0,0,0-143.15-26.53c-7.62-.06-9-1.46-9-9v-173c0-1.33,0-2.66,0-4a1.84,1.84,0,0,0-1.57-2.1c-7.23-2-12.23,1.63-12.23,9.06V907.35c0,8.32,1.27,9.58,9.43,9.64a443.42,443.42,0,0,1,64.15,5.55,364.65,364.65,0,0,1,84.31,24,33.61,33.61,0,0,0,27.46-.06C438.13,926.3,488.2,917.56,539.84,917c6.47-.07,8.12-1.78,8.13-8.44V724.59C548,723.43,548,722.26,548,721.1Zm.38,636.77q-73.43-92.58-146.94-185.11c-2.32-2.92-3.64-4.79-.48-8.61,48-58,95.71-116.23,143.71-174.23,4.17-5,6.06-9,2.19-15-1.86-2.91-3.37-4.13-6.82-4.11q-46.48.2-93,0c-3,0-5.21.59-7.28,3.12Q386,1039.7,332,1105.3q-15.35,18.71-30.75,37.38l-1.12-.37V1137q0-77.47,0-155A11,11,0,0,0,289,970.85H215a11.44,11.44,0,0,0-11.63,11.84q0,189.7,0,379.42a12.11,12.11,0,0,0,12.28,12.47q36.24,0,72.48,0a11.76,11.76,0,0,0,12-12.11q0-80.22,0-160.46v-6.25c1.38,1.64,1.93,2.24,2.42,2.87q66.06,86,132,172a9.18,9.18,0,0,0,8.32,4c32.5-.13,65-.36,97.48.15,7.29.11,7.25-5.17,9.94-8.87S550.18,1360.2,548.33,1357.87ZM665.84,871c0-5.3-5.75-11-11.05-11q-29.47,0-58.95,0c-5.8,0-11.4,5.45-11.41,11.21q-.06,32.48,0,64.94c0,5.42,5.62,11,11.06,11q29.48,0,59,0c6,0,11.4-5.61,11.4-11.67q0-15.75,0-31.48C665.85,893,665.87,882,665.84,871Zm-1.57,99.82h-77c-7.67,0-12.28,4.52-12.28,12.07v380c0,6.13,5.41,11.69,11.45,11.69q38.75,0,77.49,0c6,0,11.64-5.59,11.64-11.62q0-190.47,0-381A11.49,11.49,0,0,0,664.27,970.85ZM935.68,782.48c-.14-20.77-5.82-39.87-21.26-54.95-16.44-16.05-37.37-21.87-59.5-22.31-40.62-.81-81.27-.34-121.91-.36a8.32,8.32,0,0,0-8.37,8.52c-.05,11.66,0,23.32,0,35,0,7.06,3.14,10.08,10.45,10.08q45.53,0,91.05,0a92,92,0,0,1,22.54,2.44c12.27,3.09,16.72,8.22,18.65,20.55.6,3.88-.36,4.81-4.26,4.78q-33.64-.25-67.28,0a157.74,157.74,0,0,0-35.58,3.91c-20,4.74-36.19,14.32-44,34.38-4.22,10.89-5.55,22.24-5.46,33.8.13,16.25,3.71,31.43,14.95,43.93,13.52,15,31.49,20.09,50.89,20.49,24.78.52,49.57.13,74.35.13V923q37.68,0,75.38,0c5.78,0,9.39-3.46,9.39-9.07C935.78,870.11,936,826.29,935.68,782.48Zm-72.2,87.77c-11.45-.24-22.9-.09-36.74-.09-11-.67-24.56,1.23-37.94-1.08-6.78-1.17-8.53-3.13-9.28-9.77-1.49-13.22,3.38-19.15,17-20.31,20.67-1.76,41.4-.51,62.1-.81,9.14-.14,9.14,0,9.14,9.11,0,6.16-.2,12.32.08,18.46C868,869.19,867.13,870.32,863.48,870.25Zm184.58,100.91H719.57A11.7,11.7,0,0,0,708,982.58q0,29.74,0,59.5a11.71,11.71,0,0,0,11.72,11.76c36,0,72,.12,108-.12,5.08,0,6.25,1.24,6.25,6.28q-.25,151.25-.12,302.49a11.75,11.75,0,0,0,12,12.09q37.5,0,75,0c7.22,0,12.31-5.07,12.31-12.26q0-75.75,0-151.5c0-50.33.06-100.66-.11-151,0-4.69.92-6.14,5.91-6.11,36.33.24,72.66.13,109,.12a12.14,12.14,0,0,0,11.89-11.79q0-29.49,0-59A12.13,12.13,0,0,0,1048.06,971.16Zm100.68-341.59q-25,0-50.09,0c-5.74,0-9.18,3.52-9.18,9.28q0,137.48,0,275c0,5.62,3.6,9.19,9.28,9.19q24.79,0,49.59,0c6.66,0,9.95-3.32,9.95-10V639C1158.27,632.92,1154.91,629.58,1148.74,629.57Zm269.87,729.81q-25.84-60.57-51.7-121.14-56.23-131.68-112.44-263.4c-1.32-3.1-2.87-4.1-6.22-4.08q-44,.22-88,0c-3.24,0-4.95.75-6.31,3.95q-81.39,192.56-163,385c-2.73,6.47,2.73,14.84,9.66,14.84,27.5,0,55-.08,82.5.1,3.85,0,5.5-1.28,6.78-4.75,10.3-27.93,20.85-55.77,31.14-83.7,1.24-3.38,2.86-4.49,6.45-4.47,24.83.16,49.66.09,74.49.09,25,0,50,.06,75-.08,3.5,0,5.14.93,6.45,4.36,10.63,28,21.6,55.83,32.23,83.81,1.36,3.56,3,4.75,6.78,4.73,28.66-.16,57.33-.08,86-.09A11.06,11.06,0,0,0,1418.61,1359.38Zm-263.68-161.73c15.35-40.36,30.56-80.35,46.23-121.57,16.24,41.18,32,81.1,48,121.57ZM1451.8,713.71c0-5.26-3.7-8.85-9.11-8.86-11.3,0-22.59,0-33.89,0-9.66,0-9.66,0-9.63-9.69,0-9.9,2.87-13.14,12.84-14.21,10.25-1.11,20.55-.27,30.82-.5,5.44-.12,8.95-3.59,9-9q0-16.24,0-32.49c0-6-3.41-9.35-9.61-9.37-4.72,0-9.44-.08-14.16,0-18.68.32-37.41-.92-56.05,1.39-22.86,2.83-34.65,12.82-39.15,34-2.48,11.62-2.5,23.5-2.24,35.31.09,3.83-1.08,4.79-4.82,4.68-8.77-.28-17.53-.12-26.31-.08-5.06,0-8.57,3.32-8.58,8.17q-.08,17.73,0,35.48a8.41,8.41,0,0,0,8.54,8.33c8.26,0,16.54.29,24.78-.1,4.87-.23,6.47.8,6.44,6.1-.24,50-.14,99.95-.14,149.92,0,6.7,3.62,10.25,10.46,10.25h48c6.8,0,10.16-3.25,10.16-9.83V837.7c0-25.48.06-51-.08-76.46,0-3.4.73-4.55,4.39-4.49,13.15.23,26.3.12,39.45.08a8.68,8.68,0,0,0,8.86-8.64Q1451.86,731,1451.8,713.71Zm348.38,557.16a.2.2,0,0,0-.13,0,1.24,1.24,0,0,0-.6.49c-1.44,4-1.37,8.18-1.94,12.28-5.87,42.28-29.45,69.06-70.22,81.31-21.17,6.36-42.93,8.16-64.7,8.33-69.15.52-138.3.15-207.45.27-5.06,0-8.5-2.08-11.54-5.72-2.39-2.86-2.1-6.2-2.1-9.51q0-186,0-371.9c0-.84,0-1.67,0-2.5.26-6.86,4.48-11.16,11.24-11.44,1.67-.07,3.34,0,5,0,71.15,0,142.3-.11,213.45.07a198.45,198.45,0,0,1,53.37,7c36.41,10.23,59.43,33.91,69.65,70.3,3.44,12.24,3.54,24.68,3.27,37.18-.47,21.79-6.89,41.53-20.28,59-6.7,8.71-14.91,15.62-23.7,22-4.1,3-4,4.65.1,7.53,1.76,1.26,3.61,2.4,5.4,3.62,18.8,12.86,31.07,30.23,36.65,52.41,1.59,6.31,1.73,12.87,3.8,19.06a1.27,1.27,0,0,0,.57.48.2.2,0,0,0,.13,0,1.13,1.13,0,0,0,.84-.12,3.39,3.39,0,0,0-.84,0c-2.35-35-18.55-61.47-49.15-78.58.21-.67.21-.88.31-1,1.2-.89,2.4-1.78,3.62-2.63,19.25-13.36,32.92-30.91,39.66-53.49a121.33,121.33,0,0,0,3.35-53.92c-6.28-40.14-28.28-68-66.94-81.42-22.42-7.8-46-9-69.51-9.06-69.66-.16-139.31-.06-209-.05a11.76,11.76,0,0,0-12.11,12q0,189.72,0,379.44a12.12,12.12,0,0,0,12.42,12.33c70.32,0,140.64.11,211-.06,19.66-.05,39.25-1.55,58.38-6.59,27.2-7.18,50.27-20.25,64.5-45.69,8.88-15.88,12.44-33.21,13.5-51.18h.41l.41-.07A1.18,1.18,0,0,0,1800.18,1270.87Z" transform="translate(-203.41 -629.52)"/><path class="cls-1" d="M1801,1263v8l-.41.07h-.41l-.13-.15c-2.1-2.32-1.6-4.89-.6-7.5a1.26,1.26,0,0,1,.61-.51.3.3,0,0,1,.16,0A1.12,1.12,0,0,1,1801,1263Z" transform="translate(-203.41 -629.52)"/><path class="cls-1" d="M1801,1251v6a1.22,1.22,0,0,1-.87.14l-.12,0a1.27,1.27,0,0,1-.52-.45c-.88-2-1.15-3.88.54-5.56l.13-.13A3.39,3.39,0,0,1,1801,1251Z" transform="translate(-203.41 -629.52)"/><path class="cls-1" d="M1800.13,1256.94l.87.06v6l-.39.08h-.4C1798.26,1261.06,1798.32,1259,1800.13,1256.94Z" transform="translate(-203.41 -629.52)"/><path class="cls-2" d="M1800.13,1257.14v-.2c0-1.93,0-3.88,0-5.82V1251c-2.35-35-18.55-61.47-49.15-78.58.21-.67.21-.88.31-1,1.2-.89,2.4-1.78,3.62-2.63,19.25-13.36,32.92-30.91,39.66-53.49a121.33,121.33,0,0,0,3.35-53.92c-6.28-40.14-28.28-68-66.94-81.42-22.42-7.8-46-9-69.51-9.06-69.66-.16-139.31-.06-209-.05a11.76,11.76,0,0,0-12.11,12q0,189.72,0,379.44a12.12,12.12,0,0,0,12.42,12.33c70.32,0,140.64.11,211-.06,19.66-.05,39.25-1.55,58.38-6.59,27.2-7.18,50.27-20.25,64.5-45.69,8.88-15.88,12.44-33.21,13.5-51.18v-.19c0-2.6,0-5.19,0-7.79v-.21C1800.18,1261,1800.16,1259,1800.13,1257.14ZM1537.06,1286q.3-33.72,0-67.45c0-3.89,1.18-4.65,4.79-4.61,19.16.17,38.31.08,57.47.08v.16c18.82,0,37.64-.07,56.46,0a70.37,70.37,0,0,1,15.81,2c15.9,3.77,23.58,13,25.21,30.47a63.05,63.05,0,0,1-1,18.89c-2.8,13.36-11.73,20.36-24.46,23.24a83.76,83.76,0,0,1-18.33,2c-37,.08-73.95,0-110.92.13C1538.2,1290.94,1537,1290,1537.06,1286Zm130.29-229.14c18,3.3,26.46,12.15,28.42,30.22a57.06,57.06,0,0,1-1.09,18.38c-2.69,12.18-10.7,19.13-22.36,22.38-7.61,2.13-15.41,2.55-23.25,2.58-16.15,0-32.31,0-48.47,0-19.49,0-39-.09-58.47.09-3.86,0-5.1-.94-5.07-5q.3-33,0-66c0-3.48.94-4.49,4.46-4.48,35.65.12,71.3,0,106.94.15A107,107,0,0,1,1667.35,1056.84Z" transform="translate(-203.41 -629.52)"/><path class="cls-2" d="M550.36,1365.94c-2.69,3.7-2.65,9-9.94,8.87-32.49-.51-65-.28-97.48-.15a9.18,9.18,0,0,1-8.32-4q-65.91-86.09-132-172c-.49-.63-1-1.23-2.42-2.87V1202q0,80.23,0,160.46a11.76,11.76,0,0,1-12,12.11q-36.24,0-72.48,0a12.11,12.11,0,0,1-12.28-12.47q0-189.72,0-379.42A11.44,11.44,0,0,1,215,970.85h74A11,11,0,0,1,300.15,982q0,77.47,0,155v5.32l1.12.37Q316.66,1124,332,1105.3q53.89-65.65,107.7-131.38c2.07-2.53,4.26-3.13,7.28-3.12q46.48.12,93,0c3.45,0,5,1.2,6.82,4.11,3.87,6,2,10-2.19,15-48,58-95.7,116.24-143.71,174.23-3.16,3.82-1.84,5.69.48,8.61q73.53,92.5,146.94,185.11C550.18,1360.2,553.11,1362.16,550.36,1365.94Z" transform="translate(-203.41 -629.52)"/><path class="cls-2" d="M1418.61,1359.38q-25.84-60.57-51.7-121.14-56.23-131.68-112.44-263.4c-1.32-3.1-2.87-4.1-6.22-4.08q-44,.22-88,0c-3.24,0-4.95.75-6.31,3.95q-81.39,192.56-163,385c-2.73,6.47,2.73,14.84,9.66,14.84,27.5,0,55-.08,82.5.1,3.85,0,5.5-1.28,6.78-4.75,10.3-27.93,20.85-55.77,31.14-83.7,1.24-3.38,2.86-4.49,6.45-4.47,24.83.16,49.66.09,74.49.09,25,0,50,.06,75-.08,3.5,0,5.14.93,6.45,4.36,10.63,28,21.6,55.83,32.23,83.81,1.36,3.56,3,4.75,6.78,4.73,28.66-.16,57.33-.08,86-.09A11.06,11.06,0,0,0,1418.61,1359.38Zm-263.68-161.73c15.35-40.36,30.56-80.35,46.23-121.57,16.24,41.18,32,81.1,48,121.57Z" transform="translate(-203.41 -629.52)"/><path class="cls-2" d="M1059.84,983q0,29.5,0,59a12.14,12.14,0,0,1-11.89,11.79c-36.33,0-72.66.12-109-.12-5,0-5.93,1.42-5.91,6.11.17,50.33.11,100.66.11,151q0,75.75,0,151.5c0,7.19-5.09,12.26-12.31,12.26q-37.5,0-75,0a11.75,11.75,0,0,1-12-12.09q0-151.25.12-302.49c0-5-1.17-6.32-6.25-6.28-36,.24-72,.13-108,.12A11.71,11.71,0,0,1,708,1042.08q0-29.76,0-59.5a11.7,11.7,0,0,1,11.57-11.42h328.49A12.13,12.13,0,0,1,1059.84,983Z" transform="translate(-203.41 -629.52)"/><path class="cls-2" d="M675.58,982q0,190.48,0,381c0,6-5.6,11.61-11.64,11.62q-38.75,0-77.49,0c-6,0-11.45-5.56-11.45-11.69v-380c0-7.55,4.61-12.07,12.28-12.07h77A11.49,11.49,0,0,1,675.58,982Z" transform="translate(-203.41 -629.52)"/><path class="cls-3" d="M1800.06,777.95c-.36-3.31-.58-6.64-1.13-9.92-4.67-27.28-19.3-46.67-46-56.48a100.81,100.81,0,0,0-34.06-6.46c-40.47-.29-80.93-.21-121.4-.23a8.32,8.32,0,0,0-8.43,8.46c-.05,11.66,0,23.32,0,35,0,6.87,3.4,10.14,10.51,10.14q45.53,0,91.05,0a95.64,95.64,0,0,1,22.55,2.42c12.09,3,16.83,8.28,18.69,20.51.58,3.76-.36,4.88-4.32,4.85q-33.64-.27-67.28-.06a160.67,160.67,0,0,0-35.58,3.91c-22.75,5.3-39.55,17.26-46,40.58a97.45,97.45,0,0,0-3,35.15c1.29,14.42,5.82,27.65,16.41,38.27,13.53,13.57,30.72,18.45,49.19,18.61,49.06.44,98.13.17,147.2.39,4.95,0,8.88-.86,11.64-5.08v-.32q0-47.44,0-94.9,0-22.35.06-44.7Zm-108.39,92.21c-10.88-.6-24.23,1.15-37.44-.94-7.74-1.22-9.58-3.24-10.25-10-1-9.93,1.42-15.64,7.84-18.17s13.52-2.75,20.39-2.83c18.52-.21,37,0,55.57-.14,3.36,0,4.79.6,4.66,4.31-.28,8-.23,16,0,23.95.09,3.15-1,3.92-4,3.87C1717,870.06,1705.5,870.16,1691.67,870.16Z" transform="translate(-203.41 -629.52)"/><path class="cls-3" d="M935.68,782.48c-.14-20.77-5.82-39.87-21.26-54.95-16.44-16.05-37.37-21.87-59.5-22.31-40.62-.81-81.27-.34-121.91-.36a8.32,8.32,0,0,0-8.37,8.52c-.05,11.66,0,23.32,0,35,0,7.06,3.14,10.08,10.45,10.08q45.53,0,91.05,0a92,92,0,0,1,22.54,2.44c12.27,3.09,16.72,8.22,18.65,20.55.6,3.88-.36,4.81-4.26,4.78q-33.64-.25-67.28,0a157.74,157.74,0,0,0-35.58,3.91c-20,4.74-36.19,14.32-44,34.38-4.22,10.89-5.55,22.24-5.46,33.8.13,16.25,3.71,31.43,14.95,43.93,13.52,15,31.49,20.09,50.89,20.49,24.78.52,49.57.13,74.35.13V923q37.68,0,75.38,0c5.78,0,9.39-3.46,9.39-9.07C935.78,870.11,936,826.29,935.68,782.48Zm-72.2,87.77c-11.45-.24-22.9-.09-36.74-.09-11-.67-24.56,1.23-37.94-1.08-6.78-1.17-8.53-3.13-9.28-9.77-1.49-13.22,3.38-19.15,17-20.31,20.67-1.76,41.4-.51,62.1-.81,9.14-.14,9.14,0,9.14,9.11,0,6.16-.2,12.32.08,18.46C868,869.19,867.13,870.32,863.48,870.25Z" transform="translate(-203.41 -629.52)"/><path class="cls-1" d="M369.79,907.23c0,4.11-.27,5.5-5,3.89C325,897.59,283.89,891.9,242,891.11c-8.33-.16-9.46-1.2-9.46-9.58v-183c0-7.89,1.27-9.25,9.24-9.5,32.23-1,64.3,0,95.79,7.92a132.48,132.48,0,0,1,28,10.36c3,1.52,4.21,3.34,4.19,6.92-.17,32.16-.1,64.32-.1,96.48S369.66,875.07,369.79,907.23Z" transform="translate(-203.41 -629.52)"/><path class="cls-3" d="M1451.8,748.19a8.68,8.68,0,0,1-8.86,8.64c-13.16,0-26.31.15-39.45-.08-3.66-.06-4.41,1.09-4.39,4.49.14,25.49.08,51,.08,76.46v75.47c0,6.58-3.36,9.83-10.16,9.83h-48c-6.83,0-10.46-3.55-10.46-10.25,0-50-.1-99.95.14-149.92,0-5.3-1.57-6.33-6.44-6.1-8.24.39-16.52.15-24.78.1a8.41,8.41,0,0,1-8.54-8.33q-.08-17.75,0-35.48c0-4.85,3.52-8.15,8.58-8.17,8.78,0,17.54-.2,26.31.08,3.73.11,4.91-.85,4.82-4.68-.26-11.81-.24-23.69,2.24-35.31,4.5-21.16,16.29-31.15,39.15-34,18.64-2.31,37.37-1.07,56.05-1.39,4.72-.08,9.44,0,14.16,0,6.19,0,9.6,3.34,9.61,9.37q0,16.25,0,32.49c0,5.42-3.52,8.89-9,9-10.27.23-20.57-.61-30.82.5-10,1.07-12.81,4.31-12.84,14.21,0,9.69,0,9.69,9.63,9.69,11.3,0,22.59,0,33.89,0,5.41,0,9.1,3.6,9.11,8.86Q1451.85,730.94,1451.8,748.19Z" transform="translate(-203.41 -629.52)"/><path class="cls-1" d="M520.44,883.48c0,5.93-1.86,7.52-8.41,7.62-38.83.61-77,5.61-114.27,16.86-3.67,1.11-7.36,2.17-10.9,3.59-3.14,1.25-3.71.13-3.62-2.77.15-5.49,0-11,0-16.49q0-88.74-.11-177.47c0-3.91,1.16-6,4.57-7.71,16.12-8.15,33.46-12,51.08-14.89,2.52-.42,3.16.41,3.12,2.83-.12,8.83,0,17.67,0,26.5,0,25.3,0,50.59,0,77.09,7.4-7,14-13,20.38-19.34,2.23-2.22,3.43-2,5.53.1,6.36,6.28,13,12.31,20.29,19.23v-5.77c0-33,.08-66-.1-99,0-4.13,1-5.51,5.18-5.22,6.31.44,12.66.24,19,.44,6.61.22,8.27,1.94,8.27,8.41Q520.46,790.49,520.44,883.48Z" transform="translate(-203.41 -629.52)"/><path class="cls-3" d="M1158.28,639V913c0,6.72-3.29,10-9.95,10q-24.79,0-49.59,0c-5.68,0-9.28-3.57-9.28-9.19q0-137.48,0-275c0-5.76,3.44-9.27,9.18-9.28q25.05,0,50.09,0C1154.91,629.58,1158.27,632.92,1158.28,639Z" transform="translate(-203.41 -629.52)"/><path class="cls-1" d="M548,724.59V908.54c0,6.66-1.66,8.37-8.13,8.44-51.64.58-101.71,9.32-149.46,29.46a33.61,33.61,0,0,1-27.46.06,364.65,364.65,0,0,0-84.31-24A443.42,443.42,0,0,0,214.46,917c-8.16-.06-9.43-1.32-9.43-9.64V723.9c0-7.43,5-11.08,12.23-9.06a1.84,1.84,0,0,1,1.57,2.1c0,1.34,0,2.67,0,4v173c0,7.55,1.42,8.95,9,9A420.11,420.11,0,0,1,371,929.44a13.16,13.16,0,0,0,9.11.18c26.32-8.39,52.57-17,80-21.1,21.45-3.2,43-5.47,64.65-5.61,8,0,9.35-1.36,9.35-9.2q0-86.47.09-173c0-2.16-2.18-6,3.18-5.94,7.32.08,10.15,1.52,10.51,6.29C548,722.26,548,723.43,548,724.59Z" transform="translate(-203.41 -629.52)"/><path class="cls-2" d="M665.85,904q0,15.73,0,31.48c0,6.06-5.45,11.66-11.4,11.67q-29.48,0-59,0c-5.44,0-11.06-5.57-11.06-11q0-32.47,0-64.94c0-5.76,5.61-11.21,11.41-11.21q29.47,0,58.95,0c5.3,0,11,5.72,11.05,11C665.87,882,665.85,893,665.85,904Z" transform="translate(-203.41 -629.52)"/><path class="cls-1" d="M478.32,770.53c-4-3.8-7.42-6.74-10.48-10-2-2.13-3.35-2.51-5.53-.14-3,3.27-6.38,6.15-9.64,9.21l-.07.07-.79.71-.06-7.22c0-24.19,0-48.37-.14-72.56,0-3.86,1.13-5.34,4.88-5.47,6.15-.22,12.29-.64,18.42-1.11,2.56-.2,3.47.6,3.46,3.29C478.28,714.73,478.32,742.15,478.32,770.53Z" transform="translate(-203.41 -629.52)"/></svg>