<svg xmlns="http://www.w3.org/2000/svg" width="270" height="270">
  <path fill="#B3B3B4" d="M135.01 126.4c14.11 0 25.6-14.67 25.6-32.71 0-16.73-10.29-27.97-25.6-27.97s-25.59 11.24-25.59 27.97c-.01 18.03 11.48 32.71 25.59 32.71zM185.36 9.47C169.8 3.21 152.8-.24 134.99-.24 66.12-.24 9.28 51.34 1.03 117.98.35 123.48 0 129.08 0 134.76c0 74.56 60.44 134.99 135 134.99 74.57 0 135-60.43 135-134.99C270 78 234.98 29.43 185.36 9.47zm-50.35 45.74c21.26 0 36.11 15.82 36.11 38.48 0 23.83-16.2 43.22-36.11 43.22S98.9 117.52 98.9 93.69c0-22.66 14.85-38.48 36.11-38.48zm59.37 154.18h-.06c-2.87 0-5.22-2.31-5.26-5.19-.07-5.84-.18-10.87-.25-11.69-3.43-31.46-38.77-34.85-53.8-34.85-17.78 0-48.36 4.13-53.35 31.76-.44 2.44-.71 8.33-.71 11.3 0 2.91-2.36 5.26-5.26 5.26s-5.26-2.35-5.26-5.26c0-2.86.26-9.65.88-13.15 4.64-25.69 27.85-40.42 63.7-40.42 37.21 0 61.23 16.55 64.26 44.26.15 1.41.26 8.54.31 12.67.02 2.89-2.3 5.27-5.2 5.31z"/>
</svg>
